# xmcd CD database file
#
# Track frame offsets:
#	150
#	16820
#	25297
#	36462
#	49422
#	67375
#	83312
#	99290
#	114480
#	126227
#	138455
#	153112
#
# Disc length: 2254 seconds
#
# Revision: 4
# Processed by: cddbd v1.5.1PL0 Copyright (c) Steve Scherf et al.
# Submitted via: CDex 1.51
#
DISCID=9b08cc0c
DTITLE=麗莎 - 名曲精選 1
DYEAR=1979
DGENRE=New Age
TTITLE0=相思淚
TTITLE1=啤酒女郎
TTITLE2=相思夢難圓
TTITLE3=一水隔天涯
TTITLE4=襌院鍾聲
TTITLE5=啼笑姻緣
TTITLE6=為何不愛我
TTITLE7=分飛燕
TTITLE8=難忘舊愛
TTITLE9=百花亨之戀
TTITLE10=思君怨
TTITLE11=賣花女
EXTD=YEAR: 1979
EXTT0=
EXTT1=
EXTT2=
EXTT3=
EXTT4=
EXTT5=
EXTT6=
EXTT7=
EXTT8=
EXTT9=
EXTT10=
EXTT11=
PLAYORDER=
